<svg id="Capa_1" enable-background="new 0 0 512 512" height="512" viewBox="0 0 512 512" width="512" xmlns="http://www.w3.org/2000/svg"><path d="m512 256c0 101.463-59.04 189.152-144.637 230.565-28.412 13.753-59.74 22.406-92.819 24.776-6.12.432-12.311.659-18.544.659-30.638 0-60.019-5.388-87.247-15.257-98.434-35.675-168.753-129.999-168.753-240.743 0-141.382 114.618-256 256-256s256 114.618 256 256z" fill="#eec06b"/><path d="m392.536 39.43c55.785 46.961 91.244 117.295 91.244 195.92 0 101.463-59.04 189.152-144.637 230.565-28.412 13.753-59.74 22.406-92.819 24.776-6.119.433-12.311.659-18.543.659-30.638 0-60.018-5.388-87.246-15.257-17.394-6.304-33.905-14.448-49.311-24.182 22.793 19.189 48.974 34.483 77.529 44.832 27.228 9.869 56.609 15.257 87.247 15.257 6.233 0 12.424-.227 18.543-.659 33.079-2.369 64.407-11.023 92.819-24.776 85.598-41.413 144.638-129.102 144.638-230.565 0-91.182-47.682-171.22-119.464-216.57z" fill="#ebb34c"/><path d="m338.839 383.385-14.435-218.522c0-29.695-24.073-53.768-53.768-53.768h-72.536c-23.974 0-43.409 19.435-43.409 43.409v120.548h58.25c17.222 0 31.547 13.249 32.888 30.419l6.088 77.915h86.922z" fill="#f2d1a5"/><path d="m154.691 230.207h15.649c6.532 0 12.496 3.714 15.377 9.576l3.119 6.345c3.212 6.535 10.125 10.408 17.375 9.736l30.141-2.794c4.394-.407 8.187 3.051 8.187 7.463 0 14.335-8.456 27.321-21.567 33.119l-43.733 19.341c-4.984 2.204-10.621 2.429-15.765.628l-4.471-1.565c-11.51-4.031-17.348-16.834-12.844-28.167l5.809-14.615c1.798-4.524 2.722-9.348 2.722-14.217v-24.85z" fill="#e18720"/><path d="m317.822 247.21c-28.63 24.245-42.566-15.828-48.559-44.002 5.201-4.075 8.58-10.721 8.58-18.227 0-12.398-9.242-22.457-20.634-22.457-9.474 0-17.47 6.964-19.877 16.438-13.816-6.749-28.148-23.067-27.839-37.072-14.616 6.878-73.938-34.536-59.323-60.036 14.616-25.509 44.707-13.653 68.35-3.026 23.643 10.618 91.993-31.51 109.618 22.225 39.98 12.036 31.812 110.478-10.316 146.157z" fill="#e18720"/><path d="m328.139 101.053c-8.995-27.423-31.202-29.875-53.935-27.116 12.941 2.261 23.881 9.357 29.705 26.14.212.61.695 1.081 1.306 1.29 38.866 13.336 30.488 110.457-11.293 145.843-1.347 1.14-2.661 2.138-3.943 3.002 7.199 6.092 16.333 6.746 27.843-3.002 42.128-35.679 50.296-134.121 10.317-146.157z" fill="#d76718"/><path d="m367.363 361.326v125.239c-28.412 13.753-59.74 22.406-92.819 24.776-6.12.432-12.311.659-18.544.659-30.638 0-60.019-5.388-87.247-15.257v-34.285c0-41.382 16.772-78.86 43.897-105.974 22.231-22.242 51.437-37.53 84.052-42.299 7.16-1.051 14.474-1.597 21.922-1.597 26.919 0 48.739 21.819 48.739 48.738z" fill="#e69642"/><path d="m339.143 465.915c-28.412 13.753-59.74 22.406-92.819 24.776-6.119.433-12.311.659-18.543.659-20.317 0-40.077-2.383-59.028-6.857v12.25c27.228 9.869 56.609 15.257 87.247 15.257 6.233 0 12.424-.227 18.543-.659 33.079-2.369 64.407-11.023 92.819-24.776v-36.598c-9.029 5.884-18.449 11.221-28.219 15.948z" fill="#e1761c"/><path d="m307.118 313.021c-77.397 5.875-138.365 70.535-138.365 149.437v2.199c22.854-11.427 43.108-28.125 58.34-48.584.446-.599.529-1.395.224-2.077-3.733-8.338-7.393-16.727-11.115-25.073-.635-1.423.471-3.009 2.025-2.892 9.791.736 20.057 1.61 29.784 2.328.947.07 1.803-.522 2.096-1.425 9.805-30.18 30.533-56.484 57.011-73.913z" fill="#e1761c"/><path d="m367.363 353.764v132.801c-28.412 13.753-59.74 22.406-92.819 24.776v-157.577c0-12.815 5.192-24.415 13.598-32.821 2.575-2.575 5.45-4.842 8.561-6.758 7.057-4.337 15.36-6.83 24.25-6.83 25.631-.001 46.41 20.778 46.41 46.409z" fill="#e18720"/><path d="m274.543 487.072v24.269c33.079-2.369 64.407-11.023 92.819-24.776v-36.598c-9.03 5.884-18.449 11.221-28.22 15.948-20.196 9.776-41.873 16.96-64.599 21.157z" fill="#d76718"/></svg>